<mxfile host="app.diagrams.net" modified="2024-04-23T17:33:28.695Z" agent="Mozilla/5.0 (Windows NT 10.0; Win64; x64) AppleWebKit/537.36 (KHTML, like Gecko) Chrome/124.0.0.0 Safari/537.36" etag="Fxr17h0Ms8n4PPckBeUP" version="24.2.7" type="device">
  <diagram id="bc47vRQSer-DN1HRI0ml" name="Page-1">
    <mxGraphModel dx="882" dy="578" grid="1" gridSize="10" guides="1" tooltips="1" connect="1" arrows="1" fold="1" page="1" pageScale="1" pageWidth="850" pageHeight="1100" math="0" shadow="0">
      <root>
        <mxCell id="0" />
        <mxCell id="1" parent="0" />
        <mxCell id="EEJaSnohlY-yvcaeWGa1-24" style="edgeStyle=orthogonalEdgeStyle;rounded=0;orthogonalLoop=1;jettySize=auto;html=1;exitX=0.25;exitY=1;exitDx=0;exitDy=0;entryX=0.25;entryY=0;entryDx=0;entryDy=0;" edge="1" parent="1" source="EEJaSnohlY-yvcaeWGa1-1" target="EEJaSnohlY-yvcaeWGa1-2">
          <mxGeometry relative="1" as="geometry" />
        </mxCell>
        <mxCell id="EEJaSnohlY-yvcaeWGa1-25" style="edgeStyle=orthogonalEdgeStyle;rounded=0;orthogonalLoop=1;jettySize=auto;html=1;exitX=0.75;exitY=1;exitDx=0;exitDy=0;entryX=0.75;entryY=0;entryDx=0;entryDy=0;" edge="1" parent="1" source="EEJaSnohlY-yvcaeWGa1-1" target="EEJaSnohlY-yvcaeWGa1-2">
          <mxGeometry relative="1" as="geometry" />
        </mxCell>
        <mxCell id="EEJaSnohlY-yvcaeWGa1-1" value="User" style="rounded=1;whiteSpace=wrap;html=1;" vertex="1" parent="1">
          <mxGeometry x="400" y="40" width="120" height="60" as="geometry" />
        </mxCell>
        <mxCell id="EEJaSnohlY-yvcaeWGa1-19" style="edgeStyle=orthogonalEdgeStyle;rounded=0;orthogonalLoop=1;jettySize=auto;html=1;exitX=0;exitY=0.5;exitDx=0;exitDy=0;entryX=0.5;entryY=0;entryDx=0;entryDy=0;" edge="1" parent="1" source="EEJaSnohlY-yvcaeWGa1-2" target="EEJaSnohlY-yvcaeWGa1-3">
          <mxGeometry relative="1" as="geometry" />
        </mxCell>
        <mxCell id="EEJaSnohlY-yvcaeWGa1-23" style="edgeStyle=orthogonalEdgeStyle;rounded=0;orthogonalLoop=1;jettySize=auto;html=1;exitX=1;exitY=0.5;exitDx=0;exitDy=0;" edge="1" parent="1" source="EEJaSnohlY-yvcaeWGa1-2" target="EEJaSnohlY-yvcaeWGa1-4">
          <mxGeometry relative="1" as="geometry" />
        </mxCell>
        <mxCell id="EEJaSnohlY-yvcaeWGa1-2" value="Load balancer" style="rounded=1;whiteSpace=wrap;html=1;" vertex="1" parent="1">
          <mxGeometry x="400" y="160" width="120" height="60" as="geometry" />
        </mxCell>
        <mxCell id="EEJaSnohlY-yvcaeWGa1-9" style="edgeStyle=orthogonalEdgeStyle;rounded=0;orthogonalLoop=1;jettySize=auto;html=1;exitX=0;exitY=0.5;exitDx=0;exitDy=0;" edge="1" parent="1" source="EEJaSnohlY-yvcaeWGa1-3" target="EEJaSnohlY-yvcaeWGa1-5">
          <mxGeometry relative="1" as="geometry" />
        </mxCell>
        <mxCell id="EEJaSnohlY-yvcaeWGa1-18" style="edgeStyle=orthogonalEdgeStyle;rounded=0;orthogonalLoop=1;jettySize=auto;html=1;exitX=0.5;exitY=1;exitDx=0;exitDy=0;" edge="1" parent="1" source="EEJaSnohlY-yvcaeWGa1-3" target="EEJaSnohlY-yvcaeWGa1-6">
          <mxGeometry relative="1" as="geometry" />
        </mxCell>
        <mxCell id="EEJaSnohlY-yvcaeWGa1-22" style="edgeStyle=orthogonalEdgeStyle;rounded=0;orthogonalLoop=1;jettySize=auto;html=1;exitX=0.5;exitY=0;exitDx=0;exitDy=0;entryX=0;entryY=0.5;entryDx=0;entryDy=0;" edge="1" parent="1" source="EEJaSnohlY-yvcaeWGa1-3" target="EEJaSnohlY-yvcaeWGa1-2">
          <mxGeometry relative="1" as="geometry" />
        </mxCell>
        <mxCell id="EEJaSnohlY-yvcaeWGa1-28" style="edgeStyle=orthogonalEdgeStyle;rounded=0;orthogonalLoop=1;jettySize=auto;html=1;exitX=1;exitY=0.5;exitDx=0;exitDy=0;" edge="1" parent="1" source="EEJaSnohlY-yvcaeWGa1-3" target="EEJaSnohlY-yvcaeWGa1-7">
          <mxGeometry relative="1" as="geometry" />
        </mxCell>
        <mxCell id="EEJaSnohlY-yvcaeWGa1-29" style="edgeStyle=orthogonalEdgeStyle;rounded=0;orthogonalLoop=1;jettySize=auto;html=1;exitX=1;exitY=0.75;exitDx=0;exitDy=0;entryX=0.5;entryY=1;entryDx=0;entryDy=0;" edge="1" parent="1" source="EEJaSnohlY-yvcaeWGa1-3" target="EEJaSnohlY-yvcaeWGa1-8">
          <mxGeometry relative="1" as="geometry">
            <Array as="points">
              <mxPoint x="400" y="325" />
              <mxPoint x="400" y="520" />
              <mxPoint x="740" y="520" />
            </Array>
          </mxGeometry>
        </mxCell>
        <mxCell id="EEJaSnohlY-yvcaeWGa1-3" value="WebSocket servers" style="rounded=1;whiteSpace=wrap;html=1;" vertex="1" parent="1">
          <mxGeometry x="240" y="280" width="120" height="60" as="geometry" />
        </mxCell>
        <mxCell id="EEJaSnohlY-yvcaeWGa1-17" style="edgeStyle=orthogonalEdgeStyle;rounded=0;orthogonalLoop=1;jettySize=auto;html=1;exitX=1;exitY=0.5;exitDx=0;exitDy=0;" edge="1" parent="1" source="EEJaSnohlY-yvcaeWGa1-4" target="EEJaSnohlY-yvcaeWGa1-8">
          <mxGeometry relative="1" as="geometry" />
        </mxCell>
        <mxCell id="EEJaSnohlY-yvcaeWGa1-4" value="API servers" style="rounded=1;whiteSpace=wrap;html=1;" vertex="1" parent="1">
          <mxGeometry x="560" y="280" width="120" height="60" as="geometry" />
        </mxCell>
        <mxCell id="EEJaSnohlY-yvcaeWGa1-10" style="edgeStyle=orthogonalEdgeStyle;rounded=0;orthogonalLoop=1;jettySize=auto;html=1;exitX=0.5;exitY=0;exitDx=0;exitDy=0;entryX=0;entryY=0.5;entryDx=0;entryDy=0;" edge="1" parent="1" source="EEJaSnohlY-yvcaeWGa1-5" target="EEJaSnohlY-yvcaeWGa1-3">
          <mxGeometry relative="1" as="geometry" />
        </mxCell>
        <mxCell id="EEJaSnohlY-yvcaeWGa1-5" value="Redis Pub/Sub" style="rounded=1;whiteSpace=wrap;html=1;" vertex="1" parent="1">
          <mxGeometry x="40" y="400" width="120" height="60" as="geometry" />
        </mxCell>
        <mxCell id="EEJaSnohlY-yvcaeWGa1-6" value="Cache" style="rounded=1;whiteSpace=wrap;html=1;" vertex="1" parent="1">
          <mxGeometry x="240" y="400" width="120" height="60" as="geometry" />
        </mxCell>
        <mxCell id="EEJaSnohlY-yvcaeWGa1-7" value="Location history DB" style="rounded=1;whiteSpace=wrap;html=1;" vertex="1" parent="1">
          <mxGeometry x="440" y="400" width="120" height="60" as="geometry" />
        </mxCell>
        <mxCell id="EEJaSnohlY-yvcaeWGa1-8" value="User DB" style="rounded=1;whiteSpace=wrap;html=1;" vertex="1" parent="1">
          <mxGeometry x="680" y="400" width="120" height="60" as="geometry" />
        </mxCell>
        <mxCell id="EEJaSnohlY-yvcaeWGa1-26" value="WebSocket" style="text;html=1;align=center;verticalAlign=middle;whiteSpace=wrap;rounded=0;" vertex="1" parent="1">
          <mxGeometry x="360" y="120" width="70" height="30" as="geometry" />
        </mxCell>
        <mxCell id="EEJaSnohlY-yvcaeWGa1-27" value="http" style="text;html=1;align=center;verticalAlign=middle;whiteSpace=wrap;rounded=0;" vertex="1" parent="1">
          <mxGeometry x="500" y="120" width="60" height="30" as="geometry" />
        </mxCell>
      </root>
    </mxGraphModel>
  </diagram>
</mxfile>
